<svg id="svg" version="1.1" width="400" height="400" xmlns="http://www.w3.org/2000/svg" xmlns:xlink="http://www.w3.org/1999/xlink" style="display: block;"><g id="svgg"><path id="path0" d="M205.200 263.200 C 205.200 263.420,204.880 263.600,204.488 263.600 C 204.097 263.600,203.517 263.960,203.200 264.400 C 202.883 264.840,202.303 265.200,201.912 265.200 C 201.520 265.200,201.200 265.380,201.200 265.600 C 201.200 265.820,200.922 266.000,200.582 266.000 C 199.826 266.000,198.000 267.763,198.000 268.494 C 198.000 268.785,197.640 269.283,197.200 269.600 C 196.760 269.917,196.400 270.497,196.400 270.888 C 196.400 271.280,196.220 271.600,196.000 271.600 C 195.780 271.600,195.600 272.100,195.600 272.712 C 195.600 273.365,195.270 274.061,194.800 274.400 C 194.360 274.717,194.000 275.284,194.000 275.660 C 194.000 276.374,193.475 277.000,192.049 277.988 C 191.582 278.312,191.200 278.821,191.200 279.120 C 191.200 279.418,190.480 280.354,189.600 281.200 C 188.720 282.046,188.000 283.021,188.000 283.369 C 188.000 283.716,187.717 284.000,187.371 284.000 C 186.639 284.000,185.600 284.938,185.600 285.600 C 185.600 286.262,184.561 287.200,183.829 287.200 C 183.483 287.200,183.200 287.479,183.200 287.819 C 183.200 288.490,177.817 294.000,177.162 294.000 C 176.619 294.000,174.800 295.856,174.800 296.410 C 174.800 296.993,173.785 298.000,173.197 298.000 C 172.944 298.000,172.046 298.720,171.200 299.600 C 170.354 300.480,169.462 301.200,169.216 301.200 C 168.970 301.200,167.163 302.820,165.200 304.800 C 163.237 306.780,161.366 308.400,161.042 308.400 C 160.719 308.400,160.343 308.751,160.206 309.180 C 160.070 309.608,159.608 310.070,159.180 310.206 C 158.751 310.343,158.400 310.622,158.400 310.827 C 158.400 311.032,158.122 311.200,157.783 311.200 C 157.443 311.200,155.741 312.640,154.000 314.400 C 152.259 316.160,150.557 317.600,150.217 317.600 C 149.878 317.600,149.600 317.780,149.600 318.000 C 149.600 318.220,149.318 318.400,148.974 318.400 C 148.630 318.400,147.471 319.300,146.400 320.400 C 145.329 321.500,144.336 322.400,144.195 322.400 C 144.053 322.400,143.246 323.120,142.400 324.000 C 141.553 324.882,140.481 325.600,140.013 325.600 C 139.546 325.600,138.730 326.005,138.201 326.500 C 136.501 328.090,136.046 328.400,135.417 328.400 C 135.078 328.400,134.800 328.580,134.800 328.800 C 134.800 329.020,134.516 329.200,134.169 329.200 C 133.821 329.200,132.846 329.920,132.000 330.800 C 131.059 331.780,130.097 332.400,129.520 332.400 C 129.001 332.400,128.312 332.777,127.988 333.237 C 126.715 335.050,126.071 335.600,125.222 335.600 C 124.713 335.600,123.685 336.279,122.800 337.200 C 121.954 338.080,120.979 338.800,120.631 338.800 C 120.284 338.800,120.000 338.980,120.000 339.200 C 120.000 339.420,119.680 339.600,119.288 339.600 C 118.897 339.600,118.317 339.960,118.000 340.400 C 117.683 340.840,117.143 341.200,116.800 341.200 C 116.457 341.200,115.917 341.560,115.600 342.000 C 115.283 342.440,114.605 342.800,114.094 342.800 C 113.583 342.800,112.680 343.250,112.087 343.800 C 111.493 344.350,110.821 344.800,110.592 344.800 C 110.364 344.800,109.917 345.160,109.600 345.600 C 109.283 346.040,108.743 346.400,108.400 346.400 C 108.057 346.400,107.517 346.760,107.200 347.200 C 106.883 347.640,106.343 348.000,106.000 348.000 C 105.657 348.000,105.117 348.360,104.800 348.800 C 104.461 349.270,103.765 349.600,103.112 349.600 C 102.500 349.600,102.000 349.780,102.000 350.000 C 102.000 350.220,101.712 350.400,101.360 350.400 C 101.009 350.400,100.217 350.940,99.600 351.600 C 98.911 352.338,98.079 352.800,97.440 352.800 C 96.868 352.800,96.400 352.980,96.400 353.200 C 96.400 353.420,96.080 353.600,95.688 353.600 C 95.297 353.600,94.717 353.960,94.400 354.400 C 94.083 354.840,93.633 355.200,93.400 355.200 C 93.167 355.200,92.717 355.560,92.400 356.000 C 92.061 356.470,91.365 356.800,90.712 356.800 C 90.100 356.800,89.600 356.980,89.600 357.200 C 89.600 357.420,89.280 357.600,88.888 357.600 C 88.497 357.600,87.917 357.960,87.600 358.400 C 87.283 358.840,86.703 359.200,86.312 359.200 C 85.920 359.200,85.600 359.380,85.600 359.600 C 85.600 359.820,85.073 360.000,84.429 360.000 C 83.784 360.000,82.987 360.270,82.657 360.600 C 82.327 360.930,81.814 361.200,81.517 361.200 C 81.220 361.200,80.717 361.560,80.400 362.000 C 80.083 362.440,79.503 362.800,79.112 362.800 C 78.720 362.800,78.400 362.980,78.400 363.200 C 78.400 363.420,77.950 363.600,77.400 363.600 C 76.850 363.600,76.400 363.780,76.400 364.000 C 76.400 364.220,76.080 364.400,75.688 364.400 C 75.297 364.400,74.717 364.760,74.400 365.200 C 74.083 365.640,73.503 366.000,73.112 366.000 C 72.720 366.000,72.400 366.180,72.400 366.400 C 72.400 366.620,71.860 366.800,71.200 366.800 C 70.540 366.800,70.000 366.980,70.000 367.200 C 70.000 367.420,69.640 367.600,69.200 367.600 C 68.760 367.600,68.400 367.780,68.400 368.000 C 68.400 368.220,68.080 368.400,67.688 368.400 C 67.297 368.400,66.717 368.760,66.400 369.200 C 66.082 369.641,65.365 370.000,64.800 370.000 C 64.235 370.000,63.518 370.359,63.200 370.800 C 62.883 371.240,62.303 371.600,61.912 371.600 C 61.520 371.600,61.200 371.780,61.200 372.000 C 61.200 372.220,60.930 372.400,60.600 372.400 C 60.270 372.400,60.000 372.580,60.000 372.800 C 60.000 373.020,59.640 373.200,59.200 373.200 C 58.760 373.200,58.400 373.380,58.400 373.600 C 58.400 373.820,57.720 374.000,56.888 374.000 C 55.835 374.000,55.202 374.243,54.800 374.800 C 54.483 375.240,53.903 375.600,53.512 375.600 C 53.120 375.600,52.800 375.780,52.800 376.000 C 52.800 376.220,52.440 376.400,52.000 376.400 C 51.560 376.400,51.200 376.555,51.200 376.744 C 51.200 376.933,50.182 377.193,48.937 377.322 C 47.693 377.450,46.568 377.715,46.437 377.910 C 46.307 378.105,45.615 378.519,44.900 378.830 C 44.185 379.141,43.600 379.531,43.600 379.698 C 43.600 379.864,43.240 380.000,42.800 380.000 C 42.360 380.000,42.000 380.180,42.000 380.400 C 42.000 380.620,41.280 380.800,40.400 380.800 C 39.520 380.800,38.800 380.980,38.800 381.200 C 38.800 381.420,38.260 381.600,37.600 381.600 C 36.940 381.600,36.400 381.780,36.400 382.000 C 36.400 382.220,36.040 382.400,35.600 382.400 C 35.160 382.400,34.800 382.580,34.800 382.800 C 34.800 383.020,34.440 383.200,34.000 383.200 C 33.560 383.200,33.200 383.380,33.200 383.600 C 33.200 383.820,32.480 384.000,31.600 384.000 C 30.720 384.000,30.000 384.180,30.000 384.400 C 30.000 384.620,29.640 384.800,29.200 384.800 C 28.760 384.800,28.400 384.980,28.400 385.200 C 28.400 385.420,28.130 385.600,27.800 385.600 C 27.470 385.600,27.200 385.780,27.200 386.000 C 27.200 386.220,26.840 386.400,26.400 386.400 C 25.960 386.400,25.600 386.580,25.600 386.800 C 25.600 387.020,25.240 387.200,24.800 387.200 C 24.360 387.200,24.000 387.380,24.000 387.600 C 24.000 387.820,23.460 388.000,22.800 388.000 C 22.140 388.000,21.600 388.180,21.600 388.400 C 21.600 388.620,21.060 388.800,20.400 388.800 C 19.740 388.800,19.200 388.980,19.200 389.200 C 19.200 389.420,18.840 389.600,18.400 389.600 C 17.960 389.600,17.600 389.780,17.600 390.000 C 17.600 390.220,17.240 390.400,16.800 390.400 C 16.360 390.400,16.000 390.580,16.000 390.800 C 16.000 391.020,15.280 391.200,14.400 391.200 C 13.520 391.200,12.800 391.380,12.800 391.600 C 12.800 391.820,12.260 392.000,11.600 392.000 C 10.940 392.000,10.400 392.180,10.400 392.400 C 10.400 392.620,10.145 392.800,9.833 392.800 C 9.522 392.800,9.201 392.998,9.120 393.239 C 9.040 393.481,7.765 393.775,6.287 393.894 C 4.809 394.012,3.600 394.265,3.600 394.455 C 3.600 394.645,3.240 394.800,2.800 394.800 C 2.360 394.800,2.000 394.980,2.000 395.200 C 2.000 395.420,1.550 395.600,1.000 395.600 C 0.055 395.600,0.000 395.720,0.000 397.800 L 0.000 400.000 196.600 400.000 C 371.089 400.000,393.200 399.933,393.200 399.400 C 393.200 399.027,392.822 398.800,392.200 398.800 C 391.650 398.800,391.200 398.620,391.200 398.400 C 391.200 398.180,390.480 398.000,389.600 398.000 C 388.720 398.000,388.000 397.820,388.000 397.600 C 388.000 397.380,387.640 397.200,387.200 397.200 C 386.760 397.200,386.400 397.020,386.400 396.800 C 386.400 396.580,386.040 396.400,385.600 396.400 C 385.160 396.400,384.800 396.220,384.800 396.000 C 384.800 395.780,384.440 395.600,384.000 395.600 C 383.560 395.600,383.200 395.420,383.200 395.200 C 383.200 394.980,382.840 394.800,382.400 394.800 C 381.960 394.800,381.600 394.645,381.600 394.456 C 381.600 394.267,380.568 394.005,379.306 393.875 C 378.045 393.745,376.950 393.450,376.873 393.219 C 376.796 392.989,376.400 392.800,375.994 392.800 C 375.587 392.800,375.140 392.440,375.000 392.000 C 374.809 391.399,374.395 391.200,373.334 391.200 C 372.280 391.200,371.636 390.895,370.800 390.000 C 370.183 389.340,369.391 388.800,369.040 388.800 C 368.688 388.800,368.400 388.620,368.400 388.400 C 368.400 388.180,367.720 388.000,366.888 388.000 C 365.835 388.000,365.202 387.757,364.800 387.200 C 364.483 386.760,363.903 386.400,363.512 386.400 C 363.120 386.400,362.800 386.220,362.800 386.000 C 362.800 385.780,362.480 385.600,362.088 385.600 C 361.697 385.600,361.117 385.240,360.800 384.800 C 360.440 384.300,359.765 384.000,359.000 384.000 C 358.235 384.000,357.560 383.700,357.200 383.200 C 356.883 382.760,356.303 382.400,355.912 382.400 C 355.520 382.400,355.200 382.220,355.200 382.000 C 355.200 381.780,354.840 381.600,354.400 381.600 C 353.960 381.600,353.600 381.420,353.600 381.200 C 353.600 380.980,353.060 380.800,352.400 380.800 C 351.740 380.800,351.200 380.620,351.200 380.400 C 351.200 380.180,350.880 380.000,350.488 380.000 C 350.097 380.000,349.517 379.640,349.200 379.200 C 348.883 378.760,348.380 378.400,348.083 378.400 C 347.786 378.400,347.273 378.130,346.943 377.800 C 346.613 377.470,345.675 377.200,344.860 377.200 C 343.835 377.200,343.198 376.952,342.800 376.400 C 342.483 375.960,342.033 375.600,341.800 375.600 C 341.567 375.600,341.117 375.240,340.800 374.800 C 340.461 374.330,339.765 374.000,339.112 374.000 C 338.500 374.000,338.000 373.820,338.000 373.600 C 338.000 373.380,337.680 373.200,337.288 373.200 C 336.897 373.200,336.317 372.840,336.000 372.400 C 335.683 371.960,335.143 371.600,334.800 371.600 C 334.457 371.600,333.917 371.240,333.600 370.800 C 333.282 370.359,332.565 370.000,332.000 370.000 C 331.435 370.000,330.718 369.641,330.400 369.200 C 330.083 368.760,329.543 368.400,329.200 368.400 C 328.857 368.400,328.317 368.040,328.000 367.600 C 327.683 367.160,327.143 366.800,326.800 366.800 C 326.457 366.800,325.912 366.423,325.588 365.963 C 324.313 364.148,323.670 363.600,322.814 363.600 C 322.323 363.600,321.417 363.060,320.800 362.400 C 320.183 361.740,319.391 361.200,319.040 361.200 C 318.688 361.200,318.400 361.023,318.400 360.808 C 318.400 360.592,317.905 360.292,317.300 360.140 C 316.695 359.989,315.723 359.356,315.140 358.733 C 314.556 358.110,313.791 357.600,313.440 357.600 C 313.088 357.600,312.800 357.420,312.800 357.200 C 312.800 356.980,312.516 356.800,312.169 356.800 C 311.508 356.800,308.400 353.804,308.400 353.167 C 308.400 352.965,307.936 352.800,307.369 352.800 C 306.688 352.800,305.814 352.255,304.800 351.200 C 303.954 350.320,303.054 349.600,302.800 349.600 C 302.546 349.600,301.646 348.880,300.800 348.000 C 299.954 347.120,299.063 346.400,298.818 346.400 C 298.573 346.400,297.759 345.815,297.008 345.100 C 295.015 343.201,294.486 342.800,293.977 342.800 C 293.453 342.800,291.200 340.494,291.200 339.958 C 291.200 339.761,290.918 339.600,290.574 339.600 C 290.230 339.600,289.071 338.700,288.000 337.600 C 286.929 336.500,285.847 335.600,285.597 335.600 C 285.009 335.600,284.000 334.589,284.000 334.000 C 284.000 333.411,282.991 332.400,282.403 332.400 C 282.153 332.400,281.071 331.500,280.000 330.400 C 278.929 329.300,277.770 328.400,277.426 328.400 C 277.082 328.400,276.800 328.232,276.800 328.027 C 276.800 327.822,276.440 327.540,276.000 327.400 C 275.560 327.260,275.200 326.798,275.200 326.373 C 275.200 325.948,275.006 325.600,274.769 325.600 C 274.531 325.600,273.646 324.880,272.800 324.000 C 271.954 323.120,271.063 322.400,270.818 322.400 C 270.150 322.400,267.600 319.717,267.600 319.013 C 267.600 318.676,267.316 318.400,266.969 318.400 C 266.621 318.400,265.646 317.680,264.800 316.800 C 263.954 315.920,263.056 315.200,262.803 315.200 C 262.215 315.200,261.200 314.193,261.200 313.610 C 261.200 313.109,259.410 311.207,258.918 311.187 C 258.282 311.160,256.800 309.655,256.800 309.036 C 256.800 308.686,256.527 308.400,256.193 308.400 C 255.517 308.400,240.400 293.432,240.400 292.762 C 240.400 292.528,239.680 291.646,238.800 290.800 C 237.920 289.954,237.200 289.056,237.200 288.803 C 237.200 288.139,236.162 287.200,235.429 287.200 C 235.083 287.200,234.800 286.922,234.800 286.583 C 234.800 286.243,233.360 284.541,231.600 282.800 C 229.840 281.059,228.400 279.423,228.400 279.164 C 228.400 278.696,227.634 277.934,226.037 276.812 C 225.577 276.488,225.200 275.911,225.200 275.530 C 225.200 275.148,224.750 274.386,224.200 273.836 C 223.650 273.286,223.200 272.558,223.200 272.218 C 223.200 271.878,223.020 271.600,222.800 271.600 C 222.580 271.600,222.400 271.312,222.400 270.960 C 222.400 270.609,221.860 269.817,221.200 269.200 C 220.540 268.583,220.000 267.791,220.000 267.440 C 220.000 267.018,219.646 266.800,218.960 266.800 C 218.321 266.800,217.489 266.338,216.800 265.600 C 216.183 264.940,215.391 264.400,215.040 264.400 C 214.688 264.400,214.400 264.220,214.400 264.000 C 214.400 263.780,214.040 263.600,213.600 263.600 C 213.160 263.600,212.800 263.420,212.800 263.200 C 212.800 262.961,211.267 262.800,209.000 262.800 C 206.733 262.800,205.200 262.961,205.200 263.200 M211.459 267.390 C 212.109 267.714,213.068 268.434,213.590 268.990 C 214.112 269.545,214.740 270.000,214.985 270.000 C 215.693 270.000,219.012 273.660,219.719 275.221 C 220.073 276.003,220.731 276.976,221.181 277.383 C 221.632 277.791,222.000 278.330,222.000 278.581 C 222.000 278.832,222.720 279.741,223.600 280.600 C 224.480 281.459,225.200 282.355,225.200 282.591 C 225.200 282.826,226.640 284.450,228.400 286.200 C 230.160 287.950,231.600 289.568,231.600 289.796 C 231.600 290.024,232.002 290.388,232.493 290.605 C 232.984 290.822,233.594 291.422,233.849 291.938 C 234.103 292.454,234.961 293.541,235.756 294.355 C 236.550 295.168,237.201 296.006,237.202 296.217 C 237.204 296.754,252.176 311.600,252.715 311.600 C 252.958 311.600,253.391 312.090,253.678 312.688 C 253.965 313.287,254.604 313.978,255.097 314.224 C 256.428 314.887,257.647 316.082,258.039 317.107 C 258.230 317.606,258.794 318.173,259.293 318.367 C 259.792 318.561,260.740 319.296,261.400 320.000 C 262.060 320.704,263.005 321.438,263.500 321.630 C 263.995 321.823,264.400 322.226,264.400 322.526 C 264.400 323.095,266.933 325.600,267.508 325.600 C 267.689 325.600,268.541 326.320,269.400 327.200 C 270.259 328.080,271.196 328.800,271.481 328.800 C 271.767 328.800,272.000 329.013,272.000 329.274 C 272.000 329.873,273.601 331.600,274.156 331.600 C 274.385 331.600,275.413 332.428,276.441 333.441 C 277.469 334.453,278.735 335.493,279.255 335.752 C 279.775 336.011,280.440 336.723,280.732 337.334 C 281.025 337.945,281.655 338.598,282.132 338.785 C 282.610 338.973,283.802 339.953,284.783 340.963 C 285.764 341.973,286.737 342.800,286.946 342.800 C 287.154 342.800,288.031 343.520,288.893 344.400 C 289.756 345.280,290.628 346.000,290.832 346.000 C 291.036 346.000,292.057 346.809,293.101 347.798 C 294.146 348.787,295.188 349.597,295.419 349.598 C 295.649 349.599,296.541 350.320,297.400 351.200 C 298.259 352.080,299.159 352.800,299.400 352.800 C 299.641 352.800,300.541 353.520,301.400 354.400 C 302.259 355.280,303.196 356.000,303.481 356.000 C 303.767 356.000,304.000 356.180,304.000 356.400 C 304.000 356.620,304.284 356.800,304.631 356.800 C 304.979 356.800,305.954 357.520,306.800 358.400 C 307.646 359.280,308.621 360.000,308.969 360.000 C 309.316 360.000,309.600 360.180,309.600 360.400 C 309.600 360.620,309.888 360.800,310.240 360.800 C 310.591 360.800,311.383 361.340,312.000 362.000 C 312.617 362.660,313.409 363.200,313.760 363.200 C 314.112 363.200,314.400 363.368,314.400 363.573 C 314.400 363.778,314.805 364.073,315.300 364.227 C 315.795 364.382,316.697 365.024,317.303 365.654 C 317.910 366.284,318.675 366.800,319.003 366.800 C 319.332 366.800,319.600 366.980,319.600 367.200 C 319.600 367.420,319.888 367.600,320.240 367.600 C 320.591 367.600,321.383 368.140,322.000 368.800 C 322.617 369.460,323.369 370.000,323.672 370.000 C 323.975 370.000,324.483 370.360,324.800 370.800 C 325.117 371.240,325.657 371.600,326.000 371.600 C 326.343 371.600,326.883 371.960,327.200 372.400 C 327.517 372.840,328.097 373.200,328.488 373.200 C 328.880 373.200,329.200 373.380,329.200 373.600 C 329.200 373.820,329.560 374.000,330.000 374.000 C 330.440 374.000,330.800 374.180,330.800 374.400 C 330.800 374.620,331.094 374.800,331.453 374.800 C 331.812 374.800,332.397 375.123,332.753 375.518 C 333.109 375.913,334.780 376.911,336.466 377.736 C 338.152 378.561,339.749 379.498,340.015 379.818 C 340.281 380.138,340.746 380.400,341.049 380.400 C 341.352 380.400,341.600 380.556,341.600 380.747 C 341.600 380.938,342.334 381.193,343.231 381.313 C 344.128 381.434,345.200 381.838,345.612 382.211 C 346.507 383.020,349.939 384.800,350.606 384.800 C 351.415 384.800,353.649 386.061,353.872 386.644 C 353.990 386.950,354.426 387.200,354.843 387.200 C 355.259 387.200,355.600 387.380,355.600 387.600 C 355.600 387.820,356.140 388.000,356.800 388.000 C 357.460 388.000,358.000 388.180,358.000 388.400 C 358.000 388.620,358.360 388.800,358.800 388.800 C 359.240 388.800,359.600 388.980,359.600 389.200 C 359.600 389.420,359.920 389.600,360.312 389.600 C 360.703 389.600,361.283 389.960,361.600 390.400 C 361.917 390.840,362.497 391.200,362.888 391.200 C 363.280 391.200,363.600 391.380,363.600 391.600 C 363.600 391.820,364.249 392.000,365.042 392.000 C 366.095 392.000,366.692 392.264,367.252 392.976 C 368.115 394.073,370.147 395.200,371.261 395.200 C 371.668 395.200,372.000 395.470,372.000 395.800 C 372.000 396.331,365.163 396.400,312.867 396.400 C 199.030 396.400,14.837 395.864,15.041 395.534 C 15.154 395.350,15.746 395.200,16.356 395.200 C 16.966 395.200,18.350 394.751,19.432 394.202 C 20.514 393.653,21.794 393.203,22.276 393.202 C 22.758 393.201,23.264 393.020,23.400 392.800 C 23.536 392.580,23.961 392.400,24.344 392.400 C 25.219 392.400,27.193 391.501,27.197 391.100 C 27.199 390.935,27.560 390.800,28.000 390.800 C 28.440 390.800,28.800 390.620,28.800 390.400 C 28.800 390.180,29.160 390.000,29.600 390.000 C 30.040 390.000,30.400 389.820,30.400 389.600 C 30.400 389.380,30.760 389.200,31.200 389.200 C 31.640 389.200,32.000 389.020,32.000 388.800 C 32.000 388.580,32.522 388.400,33.159 388.400 C 33.797 388.400,35.345 387.860,36.600 387.200 C 37.855 386.540,39.212 386.000,39.617 386.000 C 40.022 386.000,40.464 385.820,40.600 385.600 C 40.736 385.380,41.332 385.201,41.924 385.203 C 42.969 385.207,49.666 382.113,49.933 381.504 C 50.007 381.337,50.646 381.200,51.354 381.200 C 52.705 381.200,54.792 380.412,54.797 379.900 C 54.799 379.735,55.160 379.600,55.600 379.600 C 56.040 379.600,56.400 379.420,56.400 379.200 C 56.400 378.980,56.760 378.800,57.200 378.800 C 57.640 378.800,58.000 378.620,58.000 378.400 C 58.000 378.180,58.362 378.000,58.805 378.000 C 59.248 378.000,59.923 377.832,60.305 377.626 C 60.687 377.421,62.932 376.328,65.293 375.199 C 67.655 374.069,69.683 372.989,69.801 372.798 C 70.075 372.356,72.376 371.200,72.983 371.200 C 73.694 371.200,77.476 369.232,78.016 368.581 C 78.281 368.261,78.819 368.000,79.211 368.000 C 80.128 368.000,83.208 366.408,84.047 365.500 C 84.403 365.115,84.862 364.800,85.067 364.800 C 85.688 364.800,87.594 363.821,87.597 363.500 C 87.599 363.335,87.960 363.200,88.400 363.200 C 88.840 363.200,89.200 363.020,89.200 362.800 C 89.200 362.580,89.494 362.400,89.853 362.400 C 90.212 362.400,90.797 362.067,91.153 361.660 C 91.509 361.254,92.450 360.800,93.245 360.653 C 94.040 360.505,95.013 360.028,95.407 359.592 C 95.801 359.156,96.338 358.800,96.600 358.800 C 96.862 358.800,97.402 358.440,97.800 358.000 C 98.198 357.560,98.828 357.200,99.201 357.200 C 100.210 357.200,102.116 356.154,103.190 355.010 C 103.712 354.455,104.440 354.000,104.808 354.000 C 105.681 354.000,107.782 352.944,108.407 352.192 C 108.677 351.866,109.118 351.600,109.387 351.600 C 109.656 351.600,110.202 351.240,110.600 350.800 C 110.998 350.360,111.538 350.000,111.800 350.000 C 112.062 350.000,112.602 349.640,113.000 349.200 C 113.398 348.760,113.944 348.400,114.213 348.400 C 114.482 348.400,114.929 348.127,115.206 347.793 C 115.483 347.459,116.360 346.888,117.155 346.526 C 117.950 346.163,118.916 345.597,119.303 345.268 C 120.113 344.580,121.144 343.974,123.410 342.856 C 124.295 342.419,125.366 341.680,125.789 341.212 C 126.212 340.745,127.197 340.064,127.979 339.699 C 128.761 339.333,129.877 338.532,130.460 337.917 C 131.044 337.303,131.809 336.800,132.160 336.800 C 132.512 336.800,132.800 336.620,132.800 336.400 C 132.800 336.180,133.084 336.000,133.431 336.000 C 133.779 336.000,134.754 335.280,135.600 334.400 C 136.446 333.520,137.421 332.800,137.769 332.800 C 138.116 332.800,138.400 332.620,138.400 332.400 C 138.400 332.180,138.643 332.000,138.941 332.000 C 139.238 332.000,140.003 331.502,140.641 330.893 C 141.278 330.284,142.430 329.486,143.200 329.120 C 143.970 328.755,145.129 327.903,145.775 327.228 C 146.421 326.553,147.149 326.000,147.392 326.000 C 147.635 326.000,148.636 325.177,149.617 324.171 C 150.598 323.166,152.120 322.007,153.000 321.597 C 153.880 321.187,155.945 319.490,157.590 317.826 C 159.234 316.162,160.773 314.800,161.009 314.800 C 161.245 314.800,162.141 314.080,163.000 313.200 C 163.859 312.320,164.755 311.600,164.990 311.600 C 165.225 311.600,166.940 310.070,168.800 308.200 C 170.660 306.330,172.376 304.800,172.613 304.800 C 172.849 304.800,173.663 304.153,174.422 303.361 C 175.180 302.570,176.210 301.763,176.710 301.567 C 177.211 301.372,177.732 300.894,177.869 300.506 C 178.200 299.566,180.037 297.600,180.585 297.600 C 181.127 297.600,186.800 291.927,186.800 291.385 C 186.800 291.168,187.204 290.812,187.698 290.595 C 188.192 290.378,188.837 289.695,189.131 289.078 C 189.425 288.461,190.100 287.790,190.632 287.588 C 191.165 287.385,191.600 286.981,191.600 286.688 C 191.600 286.396,192.230 285.546,193.000 284.800 C 193.770 284.054,194.400 283.245,194.400 283.003 C 194.400 282.761,195.120 281.859,196.000 281.000 C 196.880 280.141,197.600 279.226,197.600 278.968 C 197.600 278.709,197.866 278.277,198.192 278.007 C 198.947 277.380,200.000 275.280,200.000 274.401 C 200.000 274.028,200.360 273.398,200.800 273.000 C 201.240 272.602,201.600 272.065,201.600 271.808 C 201.600 271.143,203.145 269.848,204.883 269.055 C 205.699 268.683,206.482 268.191,206.624 267.961 C 207.329 266.820,209.745 266.535,211.459 267.390 " stroke="none" fill="#000000" fill-rule="evenodd"></path><path id="path1" d="M207.741 267.197 C 207.268 267.388,206.766 267.732,206.624 267.961 C 206.482 268.191,205.699 268.683,204.883 269.055 C 203.145 269.848,201.600 271.143,201.600 271.808 C 201.600 272.065,201.240 272.602,200.800 273.000 C 200.360 273.398,200.000 274.028,200.000 274.401 C 200.000 275.280,198.947 277.380,198.192 278.007 C 197.866 278.277,197.600 278.709,197.600 278.968 C 197.600 279.226,196.880 280.141,196.000 281.000 C 195.120 281.859,194.400 282.761,194.400 283.003 C 194.400 283.245,193.770 284.054,193.000 284.800 C 192.230 285.546,191.600 286.396,191.600 286.688 C 191.600 286.981,191.165 287.385,190.632 287.588 C 190.100 287.790,189.425 288.461,189.131 289.078 C 188.837 289.695,188.192 290.378,187.698 290.595 C 187.204 290.812,186.800 291.168,186.800 291.385 C 186.800 291.927,181.127 297.600,180.585 297.600 C 180.037 297.600,178.200 299.566,177.869 300.506 C 177.732 300.894,177.211 301.372,176.710 301.567 C 176.210 301.763,175.180 302.570,174.422 303.361 C 173.663 304.153,172.849 304.800,172.613 304.800 C 172.376 304.800,170.660 306.330,168.800 308.200 C 166.940 310.070,165.225 311.600,164.990 311.600 C 164.755 311.600,163.859 312.320,163.000 313.200 C 162.141 314.080,161.245 314.800,161.009 314.800 C 160.773 314.800,159.234 316.162,157.590 317.826 C 155.945 319.490,153.880 321.187,153.000 321.597 C 152.120 322.007,150.598 323.166,149.617 324.171 C 148.636 325.177,147.635 326.000,147.392 326.000 C 147.149 326.000,146.421 326.553,145.775 327.228 C 145.129 327.903,143.970 328.755,143.200 329.120 C 142.430 329.486,141.278 330.284,140.641 330.893 C 140.003 331.502,139.238 332.000,138.941 332.000 C 138.643 332.000,138.400 332.180,138.400 332.400 C 138.400 332.620,138.116 332.800,137.769 332.800 C 137.421 332.800,136.446 333.520,135.600 334.400 C 134.754 335.280,133.779 336.000,133.431 336.000 C 133.084 336.000,132.800 336.180,132.800 336.400 C 132.800 336.620,132.512 336.800,132.160 336.800 C 131.809 336.800,131.044 337.303,130.460 337.917 C 129.877 338.532,128.761 339.333,127.979 339.699 C 127.197 340.064,126.212 340.745,125.789 341.212 C 125.366 341.680,124.295 342.419,123.410 342.856 C 121.144 343.974,120.113 344.580,119.303 345.268 C 118.916 345.597,117.950 346.163,117.155 346.526 C 116.360 346.888,115.483 347.459,115.206 347.793 C 114.929 348.127,114.482 348.400,114.213 348.400 C 113.944 348.400,113.398 348.760,113.000 349.200 C 112.602 349.640,112.062 350.000,111.800 350.000 C 111.538 350.000,110.998 350.360,110.600 350.800 C 110.202 351.240,109.656 351.600,109.387 351.600 C 109.118 351.600,108.677 351.866,108.407 352.192 C 107.782 352.944,105.681 354.000,104.808 354.000 C 104.440 354.000,103.712 354.455,103.190 355.010 C 102.116 356.154,100.210 357.200,99.201 357.200 C 98.828 357.200,98.198 357.560,97.800 358.000 C 97.402 358.440,96.862 358.800,96.600 358.800 C 96.338 358.800,95.801 359.156,95.407 359.592 C 95.013 360.028,94.040 360.505,93.245 360.653 C 92.450 360.800,91.509 361.254,91.153 361.660 C 90.797 362.067,90.212 362.400,89.853 362.400 C 89.494 362.400,89.200 362.580,89.200 362.800 C 89.200 363.020,88.840 363.200,88.400 363.200 C 87.960 363.200,87.599 363.335,87.597 363.500 C 87.594 363.821,85.688 364.800,85.067 364.800 C 84.862 364.800,84.403 365.115,84.047 365.500 C 83.208 366.408,80.128 368.000,79.211 368.000 C 78.819 368.000,78.281 368.261,78.016 368.581 C 77.476 369.232,73.694 371.200,72.983 371.200 C 72.376 371.200,70.075 372.356,69.801 372.798 C 69.683 372.989,67.655 374.069,65.293 375.199 C 62.932 376.328,60.687 377.421,60.305 377.626 C 59.923 377.832,59.248 378.000,58.805 378.000 C 58.362 378.000,58.000 378.180,58.000 378.400 C 58.000 378.620,57.640 378.800,57.200 378.800 C 56.760 378.800,56.400 378.980,56.400 379.200 C 56.400 379.420,56.040 379.600,55.600 379.600 C 55.160 379.600,54.799 379.735,54.797 379.900 C 54.792 380.412,52.705 381.200,51.354 381.200 C 50.646 381.200,50.007 381.337,49.933 381.504 C 49.666 382.113,42.969 385.207,41.924 385.203 C 41.332 385.201,40.736 385.380,40.600 385.600 C 40.464 385.820,40.022 386.000,39.617 386.000 C 39.212 386.000,37.855 386.540,36.600 387.200 C 35.345 387.860,33.797 388.400,33.159 388.400 C 32.522 388.400,32.000 388.580,32.000 388.800 C 32.000 389.020,31.640 389.200,31.200 389.200 C 30.760 389.200,30.400 389.380,30.400 389.600 C 30.400 389.820,30.040 390.000,29.600 390.000 C 29.160 390.000,28.800 390.180,28.800 390.400 C 28.800 390.620,28.440 390.800,28.000 390.800 C 27.560 390.800,27.199 390.935,27.197 391.100 C 27.193 391.501,25.219 392.400,24.344 392.400 C 23.961 392.400,23.536 392.580,23.400 392.800 C 23.264 393.020,22.758 393.201,22.276 393.202 C 21.794 393.203,20.514 393.653,19.432 394.202 C 18.350 394.751,16.966 395.200,16.356 395.200 C 15.746 395.200,15.154 395.350,15.041 395.534 C 14.837 395.864,199.030 396.400,312.867 396.400 C 365.163 396.400,372.000 396.331,372.000 395.800 C 372.000 395.470,371.668 395.200,371.261 395.200 C 370.147 395.200,368.115 394.073,367.252 392.976 C 366.692 392.264,366.095 392.000,365.042 392.000 C 364.249 392.000,363.600 391.820,363.600 391.600 C 363.600 391.380,363.280 391.200,362.888 391.200 C 362.497 391.200,361.917 390.840,361.600 390.400 C 361.283 389.960,360.703 389.600,360.312 389.600 C 359.920 389.600,359.600 389.420,359.600 389.200 C 359.600 388.980,359.240 388.800,358.800 388.800 C 358.360 388.800,358.000 388.620,358.000 388.400 C 358.000 388.180,357.460 388.000,356.800 388.000 C 356.140 388.000,355.600 387.820,355.600 387.600 C 355.600 387.380,355.259 387.200,354.843 387.200 C 354.426 387.200,353.990 386.950,353.872 386.644 C 353.649 386.061,351.415 384.800,350.606 384.800 C 349.996 384.800,346.561 383.061,345.681 382.306 C 344.767 381.522,343.600 381.133,343.600 381.613 C 343.600 381.826,343.842 382.000,344.138 382.000 C 344.434 382.000,345.002 382.360,345.400 382.800 C 345.798 383.240,346.456 383.600,346.862 383.600 C 347.268 383.600,347.601 383.735,347.603 383.900 C 347.607 384.244,349.531 385.200,350.218 385.200 C 350.826 385.200,353.126 386.357,353.400 386.800 C 353.677 387.248,355.977 388.400,356.594 388.400 C 357.165 388.400,360.574 390.099,361.519 390.855 C 362.819 391.895,363.995 392.400,365.120 392.400 C 365.854 392.400,366.654 392.821,367.400 393.600 C 368.032 394.260,368.786 394.800,369.075 394.800 C 369.364 394.800,369.600 394.968,369.600 395.173 C 369.600 395.379,370.095 395.622,370.700 395.713 C 371.305 395.805,327.385 395.907,273.100 395.940 C 178.726 395.997,174.400 395.969,174.400 395.288 C 174.400 394.897,174.760 394.317,175.200 394.000 C 175.640 393.683,176.000 393.236,176.000 393.008 C 176.000 392.779,176.450 392.107,177.000 391.513 C 177.550 390.920,178.000 390.269,178.000 390.066 C 178.000 389.864,178.279 389.466,178.620 389.184 C 178.961 388.901,179.592 387.895,180.023 386.950 C 180.454 386.004,181.255 384.781,181.803 384.233 C 182.351 383.685,182.800 383.067,182.800 382.860 C 182.800 382.653,183.257 382.060,183.815 381.542 C 184.373 381.024,185.187 379.835,185.625 378.900 C 186.062 377.965,186.652 377.200,186.935 377.200 C 187.219 377.200,187.698 376.570,188.000 375.800 C 188.302 375.030,188.781 374.400,189.065 374.400 C 189.348 374.400,189.929 373.635,190.356 372.700 C 190.782 371.765,191.597 370.564,192.166 370.030 C 192.735 369.497,193.200 368.850,193.200 368.592 C 193.200 368.335,193.567 367.792,194.016 367.385 C 194.465 366.979,195.356 365.556,195.996 364.223 C 196.804 362.540,198.203 360.765,200.580 358.409 C 202.461 356.544,204.000 354.825,204.000 354.590 C 204.000 354.355,204.720 353.459,205.600 352.600 C 206.480 351.741,207.200 350.836,207.200 350.589 C 207.200 350.342,207.669 349.703,208.242 349.170 C 208.816 348.636,209.452 347.840,209.656 347.400 C 209.860 346.960,210.545 345.700,211.178 344.600 C 211.810 343.500,212.344 342.195,212.364 341.700 C 212.384 341.205,212.580 340.800,212.800 340.800 C 213.020 340.800,213.200 340.260,213.200 339.600 C 213.200 338.940,213.380 338.400,213.600 338.400 C 213.844 338.400,214.000 336.533,214.000 333.600 C 214.000 330.667,213.844 328.800,213.600 328.800 C 213.380 328.800,213.200 328.295,213.200 327.677 C 213.200 327.059,212.571 325.304,211.801 323.777 C 211.032 322.250,210.402 320.617,210.401 320.149 C 210.401 319.681,210.137 319.080,209.816 318.813 C 209.495 318.547,208.137 316.111,206.800 313.400 C 205.463 310.689,204.105 308.253,203.784 307.987 C 203.463 307.720,203.200 307.102,203.200 306.613 C 203.200 306.124,202.840 305.398,202.400 305.000 C 201.960 304.602,201.600 303.854,201.600 303.338 C 201.600 302.822,201.420 302.400,201.200 302.400 C 200.980 302.400,200.800 302.040,200.800 301.600 C 200.800 301.160,200.620 300.800,200.400 300.800 C 200.180 300.800,200.000 300.080,200.000 299.200 C 200.000 298.320,199.820 297.600,199.600 297.600 C 199.380 297.600,199.200 296.621,199.200 295.424 C 199.200 294.227,199.020 293.136,198.800 293.000 C 198.580 292.864,198.400 292.144,198.400 291.400 C 198.400 290.656,198.580 289.936,198.800 289.800 C 199.020 289.664,199.200 288.753,199.200 287.776 C 199.200 286.799,199.380 286.000,199.600 286.000 C 199.820 286.000,200.000 285.640,200.000 285.200 C 200.000 284.760,200.180 284.400,200.400 284.400 C 200.620 284.400,200.800 283.875,200.800 283.233 C 200.800 282.592,200.941 282.007,201.113 281.933 C 201.285 281.860,202.292 280.045,203.351 277.900 C 204.409 275.756,205.439 273.900,205.639 273.776 C 205.839 273.653,206.353 272.782,206.781 271.841 C 207.210 270.900,207.839 269.899,208.180 269.616 C 208.521 269.334,208.800 268.674,208.800 268.151 C 208.800 267.403,209.014 267.200,209.800 267.200 C 210.350 267.200,210.800 267.380,210.800 267.600 C 210.800 267.820,211.088 268.000,211.440 268.000 C 211.791 268.000,212.583 268.540,213.200 269.200 C 213.817 269.860,214.523 270.400,214.771 270.400 C 215.446 270.400,218.800 273.887,218.800 274.589 C 218.800 274.925,218.980 275.200,219.200 275.200 C 219.420 275.200,219.600 275.545,219.600 275.967 C 219.600 276.388,219.736 276.793,219.903 276.867 C 220.070 276.940,220.822 277.810,221.576 278.800 C 222.329 279.790,223.363 280.981,223.873 281.447 C 224.383 281.912,224.800 282.485,224.800 282.719 C 224.800 282.954,226.240 284.599,228.000 286.376 C 229.760 288.152,231.200 289.875,231.200 290.203 C 231.200 290.531,231.483 290.800,231.829 290.800 C 232.531 290.800,233.600 291.729,233.600 292.341 C 233.600 292.559,234.320 293.444,235.200 294.307 C 236.080 295.169,236.800 296.049,236.800 296.261 C 236.800 296.878,252.017 312.000,252.638 312.000 C 252.947 312.000,253.200 312.239,253.200 312.530 C 253.200 313.138,254.851 314.800,255.454 314.800 C 255.955 314.800,257.217 316.259,257.968 317.706 C 258.280 318.308,258.830 318.800,259.191 318.800 C 259.552 318.800,260.467 319.516,261.224 320.391 C 261.981 321.266,262.915 321.986,263.300 321.991 C 263.685 321.996,264.000 322.288,264.000 322.639 C 264.000 323.270,266.687 325.973,267.331 325.991 C 267.514 325.996,268.354 326.720,269.200 327.600 C 270.046 328.480,270.886 329.205,271.069 329.211 C 271.251 329.217,271.850 329.842,272.400 330.600 C 272.950 331.358,273.637 331.983,273.926 331.989 C 274.215 331.995,275.329 332.900,276.400 334.000 C 277.471 335.100,278.553 336.000,278.803 336.000 C 279.391 336.000,280.400 337.011,280.400 337.600 C 280.400 338.189,281.409 339.200,281.997 339.200 C 282.247 339.200,283.329 340.100,284.400 341.200 C 285.471 342.300,286.675 343.189,287.074 343.175 C 287.723 343.152,287.715 343.114,287.000 342.814 C 286.560 342.629,285.480 341.723,284.600 340.801 C 283.720 339.879,282.610 338.972,282.132 338.785 C 281.655 338.598,281.025 337.945,280.732 337.334 C 280.440 336.723,279.775 336.011,279.255 335.752 C 278.735 335.493,277.469 334.453,276.441 333.441 C 275.413 332.428,274.385 331.600,274.156 331.600 C 273.601 331.600,272.000 329.873,272.000 329.274 C 272.000 329.013,271.767 328.800,271.481 328.800 C 271.196 328.800,270.259 328.080,269.400 327.200 C 268.541 326.320,267.689 325.600,267.508 325.600 C 266.933 325.600,264.400 323.095,264.400 322.526 C 264.400 322.226,263.995 321.823,263.500 321.630 C 263.005 321.438,262.060 320.704,261.400 320.000 C 260.740 319.296,259.792 318.561,259.293 318.367 C 258.794 318.173,258.230 317.606,258.039 317.107 C 257.647 316.082,256.428 314.887,255.097 314.224 C 254.604 313.978,253.965 313.287,253.678 312.688 C 253.391 312.090,252.958 311.600,252.715 311.600 C 252.176 311.600,237.204 296.754,237.202 296.217 C 237.201 296.006,236.550 295.168,235.756 294.355 C 234.961 293.541,234.103 292.454,233.849 291.938 C 233.594 291.422,232.984 290.822,232.493 290.605 C 232.002 290.388,231.600 290.024,231.600 289.796 C 231.600 289.568,230.160 287.950,228.400 286.200 C 226.640 284.450,225.200 282.826,225.200 282.591 C 225.200 282.355,224.480 281.459,223.600 280.600 C 222.720 279.741,222.000 278.832,222.000 278.581 C 222.000 278.330,221.632 277.791,221.181 277.383 C 220.731 276.976,220.073 276.003,219.719 275.221 C 219.012 273.660,215.693 270.000,214.985 270.000 C 214.740 270.000,214.112 269.545,213.590 268.990 C 211.788 267.071,209.665 266.421,207.741 267.197 M288.800 345.000 C 289.546 345.770,290.356 346.400,290.599 346.400 C 290.842 346.400,291.842 347.206,292.820 348.192 C 293.799 349.178,294.839 349.988,295.131 349.992 C 295.424 349.996,296.354 350.720,297.200 351.600 C 298.046 352.480,298.952 353.200,299.215 353.200 C 299.478 353.200,300.347 353.892,301.146 354.737 C 301.946 355.582,303.230 356.560,304.000 356.909 C 304.770 357.259,305.940 358.111,306.600 358.804 C 307.260 359.497,308.524 360.396,309.410 360.801 C 310.295 361.206,311.375 361.933,311.810 362.415 C 312.244 362.897,312.960 363.459,313.400 363.663 C 314.933 364.375,316.058 365.106,317.126 366.085 C 317.716 366.627,318.833 367.358,319.606 367.709 C 320.379 368.061,321.446 368.810,321.976 369.374 C 322.506 369.938,323.150 370.400,323.408 370.400 C 323.665 370.400,324.202 370.760,324.600 371.200 C 324.998 371.640,325.544 372.000,325.813 372.000 C 326.082 372.000,326.528 372.272,326.804 372.605 C 327.080 372.938,328.428 373.745,329.800 374.400 C 331.172 375.055,332.489 375.825,332.728 376.113 C 332.966 376.400,333.800 376.886,334.581 377.192 C 335.361 377.499,336.000 377.896,336.000 378.075 C 336.000 378.254,336.360 378.400,336.800 378.400 C 337.240 378.400,337.600 378.580,337.600 378.800 C 337.600 379.020,337.954 379.200,338.386 379.200 C 338.818 379.200,339.352 379.538,339.573 379.950 C 339.996 380.740,341.600 381.383,341.600 380.763 C 341.600 380.563,341.352 380.400,341.049 380.400 C 340.746 380.400,340.281 380.138,340.015 379.818 C 339.749 379.498,338.152 378.561,336.466 377.736 C 334.780 376.911,333.109 375.913,332.753 375.518 C 332.397 375.123,331.812 374.800,331.453 374.800 C 331.094 374.800,330.800 374.620,330.800 374.400 C 330.800 374.180,330.440 374.000,330.000 374.000 C 329.560 374.000,329.200 373.820,329.200 373.600 C 329.200 373.380,328.880 373.200,328.488 373.200 C 328.097 373.200,327.517 372.840,327.200 372.400 C 326.883 371.960,326.343 371.600,326.000 371.600 C 325.657 371.600,325.117 371.240,324.800 370.800 C 324.483 370.360,323.975 370.000,323.672 370.000 C 323.369 370.000,322.617 369.460,322.000 368.800 C 321.383 368.140,320.591 367.600,320.240 367.600 C 319.888 367.600,319.600 367.420,319.600 367.200 C 319.600 366.980,319.332 366.800,319.003 366.800 C 318.675 366.800,317.910 366.284,317.303 365.654 C 316.697 365.024,315.795 364.382,315.300 364.227 C 314.805 364.073,314.400 363.778,314.400 363.573 C 314.400 363.368,314.112 363.200,313.760 363.200 C 313.409 363.200,312.617 362.660,312.000 362.000 C 311.383 361.340,310.591 360.800,310.240 360.800 C 309.888 360.800,309.600 360.620,309.600 360.400 C 309.600 360.180,309.316 360.000,308.969 360.000 C 308.621 360.000,307.646 359.280,306.800 358.400 C 305.954 357.520,304.979 356.800,304.631 356.800 C 304.284 356.800,304.000 356.620,304.000 356.400 C 304.000 356.180,303.767 356.000,303.481 356.000 C 303.196 356.000,302.259 355.280,301.400 354.400 C 300.541 353.520,299.641 352.800,299.400 352.800 C 299.159 352.800,298.259 352.080,297.400 351.200 C 296.541 350.320,295.649 349.599,295.419 349.598 C 295.188 349.597,294.146 348.787,293.101 347.798 C 292.057 346.809,291.011 346.000,290.776 346.000 C 290.541 346.000,289.894 345.460,289.339 344.800 C 288.783 344.140,288.130 343.600,287.886 343.600 C 287.642 343.600,288.054 344.230,288.800 345.000 " stroke="none" fill="#333333" fill-rule="evenodd"></path><path id="path2" d="M208.800 268.151 C 208.800 268.674,208.521 269.334,208.180 269.616 C 207.839 269.899,207.210 270.900,206.781 271.841 C 206.353 272.782,205.839 273.653,205.639 273.776 C 205.439 273.900,204.409 275.756,203.351 277.900 C 202.292 280.045,201.285 281.860,201.113 281.933 C 200.941 282.007,200.800 282.592,200.800 283.233 C 200.800 283.875,200.620 284.400,200.400 284.400 C 200.180 284.400,200.000 284.760,200.000 285.200 C 200.000 285.640,199.820 286.000,199.600 286.000 C 199.380 286.000,199.200 286.799,199.200 287.776 C 199.200 288.753,199.020 289.664,198.800 289.800 C 198.580 289.936,198.400 290.656,198.400 291.400 C 198.400 292.144,198.580 292.864,198.800 293.000 C 199.020 293.136,199.200 294.227,199.200 295.424 C 199.200 296.621,199.380 297.600,199.600 297.600 C 199.820 297.600,200.000 298.320,200.000 299.200 C 200.000 300.080,200.180 300.800,200.400 300.800 C 200.620 300.800,200.800 301.160,200.800 301.600 C 200.800 302.040,200.980 302.400,201.200 302.400 C 201.420 302.400,201.600 302.822,201.600 303.338 C 201.600 303.854,201.960 304.602,202.400 305.000 C 202.840 305.398,203.200 306.124,203.200 306.613 C 203.200 307.102,203.463 307.720,203.784 307.987 C 204.105 308.253,205.463 310.689,206.800 313.400 C 208.137 316.111,209.495 318.547,209.816 318.813 C 210.137 319.080,210.401 319.681,210.401 320.149 C 210.402 320.617,211.032 322.250,211.801 323.777 C 212.571 325.304,213.200 327.059,213.200 327.677 C 213.200 328.295,213.380 328.800,213.600 328.800 C 213.844 328.800,214.000 330.667,214.000 333.600 C 214.000 336.533,213.844 338.400,213.600 338.400 C 213.380 338.400,213.200 338.940,213.200 339.600 C 213.200 340.260,213.020 340.800,212.800 340.800 C 212.580 340.800,212.384 341.205,212.364 341.700 C 212.344 342.195,211.810 343.500,211.178 344.600 C 210.545 345.700,209.860 346.960,209.656 347.400 C 209.452 347.840,208.816 348.636,208.242 349.170 C 207.669 349.703,207.200 350.342,207.200 350.589 C 207.200 350.836,206.480 351.741,205.600 352.600 C 204.720 353.459,204.000 354.355,204.000 354.590 C 204.000 354.825,202.461 356.544,200.580 358.409 C 198.203 360.765,196.804 362.540,195.996 364.223 C 195.356 365.556,194.465 366.979,194.016 367.385 C 193.567 367.792,193.200 368.335,193.200 368.592 C 193.200 368.850,192.735 369.497,192.166 370.030 C 191.597 370.564,190.782 371.765,190.356 372.700 C 189.929 373.635,189.348 374.400,189.065 374.400 C 188.781 374.400,188.302 375.030,188.000 375.800 C 187.698 376.570,187.219 377.200,186.935 377.200 C 186.652 377.200,186.062 377.965,185.625 378.900 C 185.187 379.835,184.373 381.024,183.815 381.542 C 183.257 382.060,182.800 382.653,182.800 382.860 C 182.800 383.067,182.351 383.685,181.803 384.233 C 181.255 384.781,180.454 386.004,180.023 386.950 C 179.592 387.895,178.961 388.901,178.620 389.184 C 178.279 389.466,178.000 389.864,178.000 390.066 C 178.000 390.269,177.550 390.920,177.000 391.513 C 176.450 392.107,176.000 392.779,176.000 393.008 C 176.000 393.236,175.640 393.683,175.200 394.000 C 174.760 394.317,174.400 394.897,174.400 395.288 C 174.400 395.969,178.726 395.997,273.100 395.940 C 327.385 395.907,371.305 395.805,370.700 395.713 C 370.095 395.622,369.600 395.379,369.600 395.173 C 369.600 394.968,369.364 394.800,369.075 394.800 C 368.786 394.800,368.032 394.260,367.400 393.600 C 366.654 392.821,365.854 392.400,365.120 392.400 C 363.995 392.400,362.819 391.895,361.519 390.855 C 360.574 390.099,357.165 388.400,356.594 388.400 C 355.977 388.400,353.677 387.248,353.400 386.800 C 353.126 386.357,350.826 385.200,350.218 385.200 C 349.531 385.200,347.607 384.244,347.603 383.900 C 347.601 383.735,347.268 383.600,346.862 383.600 C 346.456 383.600,345.798 383.240,345.400 382.800 C 345.002 382.360,344.434 382.000,344.138 382.000 C 343.842 382.000,343.600 381.844,343.600 381.653 C 343.600 381.462,342.835 381.203,341.900 381.078 C 340.805 380.931,340.005 380.557,339.651 380.025 C 339.349 379.571,338.764 379.200,338.351 379.200 C 337.938 379.200,337.600 379.020,337.600 378.800 C 337.600 378.580,337.240 378.400,336.800 378.400 C 336.360 378.400,336.000 378.254,336.000 378.075 C 336.000 377.896,335.361 377.499,334.581 377.192 C 333.800 376.886,332.966 376.400,332.728 376.113 C 332.489 375.825,331.172 375.055,329.800 374.400 C 328.428 373.745,327.080 372.938,326.804 372.605 C 326.528 372.272,326.082 372.000,325.813 372.000 C 325.544 372.000,324.998 371.640,324.600 371.200 C 324.202 370.760,323.665 370.400,323.408 370.400 C 323.150 370.400,322.506 369.938,321.976 369.374 C 321.446 368.810,320.379 368.061,319.606 367.709 C 318.833 367.358,317.716 366.627,317.126 366.085 C 316.058 365.106,314.933 364.375,313.400 363.663 C 312.960 363.459,312.244 362.897,311.810 362.415 C 311.375 361.933,310.295 361.206,309.410 360.801 C 308.524 360.396,307.260 359.497,306.600 358.804 C 305.940 358.111,304.770 357.259,304.000 356.909 C 303.230 356.560,301.946 355.582,301.146 354.737 C 300.347 353.892,299.478 353.200,299.215 353.200 C 298.952 353.200,298.046 352.480,297.200 351.600 C 296.354 350.720,295.424 349.996,295.131 349.992 C 294.839 349.988,293.799 349.178,292.820 348.192 C 291.842 347.206,290.828 346.400,290.567 346.400 C 290.306 346.400,289.443 345.680,288.648 344.800 C 287.853 343.920,287.010 343.200,286.775 343.200 C 286.540 343.200,285.471 342.300,284.400 341.200 C 283.329 340.100,282.247 339.200,281.997 339.200 C 281.409 339.200,280.400 338.189,280.400 337.600 C 280.400 337.011,279.391 336.000,278.803 336.000 C 278.553 336.000,277.471 335.100,276.400 334.000 C 275.329 332.900,274.215 331.995,273.926 331.989 C 273.637 331.983,272.950 331.358,272.400 330.600 C 271.850 329.842,271.251 329.217,271.069 329.211 C 270.886 329.205,270.046 328.480,269.200 327.600 C 268.354 326.720,267.514 325.996,267.331 325.991 C 266.687 325.973,264.000 323.270,264.000 322.639 C 264.000 322.288,263.685 321.996,263.300 321.991 C 262.915 321.986,261.981 321.266,261.224 320.391 C 260.467 319.516,259.552 318.800,259.191 318.800 C 258.830 318.800,258.280 318.308,257.968 317.706 C 257.187 316.200,255.948 314.800,255.398 314.800 C 254.810 314.800,253.200 313.096,253.200 312.474 C 253.200 312.213,252.947 312.000,252.638 312.000 C 252.017 312.000,236.800 296.878,236.800 296.261 C 236.800 296.049,236.080 295.169,235.200 294.307 C 234.320 293.444,233.600 292.559,233.600 292.341 C 233.600 291.729,232.531 290.800,231.829 290.800 C 231.483 290.800,231.200 290.531,231.200 290.203 C 231.200 289.875,229.760 288.152,228.000 286.376 C 226.240 284.599,224.800 282.954,224.800 282.719 C 224.800 282.485,224.383 281.912,223.873 281.447 C 223.363 280.981,222.329 279.790,221.576 278.800 C 220.822 277.810,220.070 276.940,219.903 276.867 C 219.736 276.793,219.600 276.388,219.600 275.967 C 219.600 275.545,219.420 275.200,219.200 275.200 C 218.980 275.200,218.800 274.925,218.800 274.589 C 218.800 273.887,215.446 270.400,214.771 270.400 C 214.523 270.400,213.817 269.860,213.200 269.200 C 212.583 268.540,211.791 268.000,211.440 268.000 C 211.088 268.000,210.800 267.820,210.800 267.600 C 210.800 267.380,210.350 267.200,209.800 267.200 C 209.014 267.200,208.800 267.403,208.800 268.151 " stroke="none" fill="#adadad" fill-rule="evenodd"></path></g></svg>